<?xml version="1.0" encoding="UTF-8" standalone="no"?>
<!-- Created with Inkscape (http://www.inkscape.org/) -->

<svg
   width="132.29167mm"
   height="132.29167mm"
   viewBox="0 0 132.29167 132.29167"
   version="1.1"
   id="svg1"
   xml:space="preserve"
   sodipodi:docname="dino_emoji_for_keychain.svg"
   inkscape:version="1.4.2 (ebf0e940, 2025-05-08)"
   xmlns:inkscape="http://www.inkscape.org/namespaces/inkscape"
   xmlns:sodipodi="http://sodipodi.sourceforge.net/DTD/sodipodi-0.dtd"
   xmlns="http://www.w3.org/2000/svg"
   xmlns:svg="http://www.w3.org/2000/svg"><sodipodi:namedview
     id="namedview1"
     pagecolor="#ffffff"
     bordercolor="#000000"
     borderopacity="0.25"
     inkscape:showpageshadow="2"
     inkscape:pageopacity="0.0"
     inkscape:pagecheckerboard="0"
     inkscape:deskcolor="#d1d1d1"
     inkscape:document-units="mm"
     inkscape:zoom="0.79025612"
     inkscape:cx="163.23822"
     inkscape:cy="428.97485"
     inkscape:window-width="1728"
     inkscape:window-height="991"
     inkscape:window-x="0"
     inkscape:window-y="38"
     inkscape:window-maximized="1"
     inkscape:current-layer="svg1" /><defs
     id="defs1" /><path
     id="path7"
     style="fill:#000000"
     d="M 37.441125 11.623063 C 33.873015 11.646147 31.044535 13.250645 28.900045 16.462044 C 28.077279 17.694146 27.631005 18.082548 25.978259 19.005558 C 23.329454 20.484837 19.655674 24.101617 18.122408 26.739453 C 12.678591 36.105016 13.29176 48.865459 19.843233 62.559489 C 23.102526 69.372133 28.126946 76.649658 33.464107 82.288 L 35.372001 84.303381 L 35.210771 88.794063 C 34.939108 96.360803 34.175216 101.19829 32.796448 104.08305 C 32.481696 104.74159 31.522491 106.13494 30.665312 107.17899 C 28.172236 110.21559 27.705802 111.01839 27.705802 112.2686 C 27.705802 113.57855 28.137448 114.26342 29.353764 114.88394 C 30.36627 115.40048 32.68586 115.83489 34.443892 115.83789 C 35.488826 115.83951 35.717807 115.94481 36.72334 116.88537 C 38.580592 118.62261 40.754947 119.48272 44.228308 119.85315 L 44.228825 119.85315 C 50.757378 120.54941 56.024143 118.73085 57.769084 115.17747 C 58.412993 113.86623 58.434041 113.70519 58.427441 110.09612 L 58.420207 106.36922 L 61.512008 106.51029 C 63.212368 106.588 64.633128 106.6755 64.669438 106.7046 L 64.669954 106.70511 L 64.670471 106.70563 L 64.670471 106.70615 C 64.697755 106.75105 64.460419 107.3054 64.13562 107.95207 C 63.272795 109.66991 63.333715 110.63056 64.362996 111.53428 C 64.818057 111.93383 65.645793 112.38369 66.202161 112.5337 C 67.278175 112.82381 71.458568 112.90882 72.252954 112.65669 C 72.703141 112.5138 72.721449 112.58942 72.609521 114.15376 C 72.416629 116.84968 73.432018 118.39885 75.952987 119.25474 C 79.218877 120.36326 87.242378 120.36161 90.652865 119.25112 C 93.210824 118.41823 94.166125 116.69709 94.332227 112.62155 C 94.424651 110.35379 94.191499 107.34919 93.752934 105.15637 L 93.626843 104.5254 L 96.793058 104.24015 C 104.87561 103.51217 110.85408 101.51356 115.56969 97.962496 C 119.95915 94.657037 122.37664 89.869848 122.38064 84.47443 C 122.38468 79.468386 120.82449 75.776239 117.18458 72.179574 C 113.7279 68.763968 109.77291 66.982805 104.5037 66.468294 C 98.282345 65.860811 94.620488 67.486367 94.938908 70.714547 C 95.077483 72.119441 95.918534 72.932855 98.535071 74.192371 C 99.709632 74.757767 101.79186 75.757854 103.16218 76.414974 C 104.5325 77.072095 106.01376 77.953887 106.45397 78.374544 C 108.72567 80.545329 108.66528 84.278229 106.33459 85.727067 C 105.54264 86.219377 105.12369 86.298092 103.28103 86.298092 C 101.42285 86.298092 100.96957 86.211635 99.793392 85.634049 C 98.316327 84.908709 95.446925 82.244717 92.968486 79.298002 C 87.066452 72.280838 85.121111 70.581809 80.738741 68.617517 C 76.40552 66.675254 72.596984 66.050881 63.416801 65.776347 C 55.638597 65.54374 54.008322 65.346625 50.483223 64.214168 C 40.286518 60.93842 32.817669 52.962176 31.750517 44.209188 C 31.466966 41.883449 31.581145 41.212448 32.413009 40.318469 C 33.351265 39.310153 34.955556 38.950284 39.569678 38.714433 C 44.3345 38.470879 45.544557 38.241801 47.506144 37.211682 C 50.459143 35.660926 52.373508 32.902388 52.853105 29.507243 C 53.426944 25.444934 52.169379 22.799832 48.509184 20.370333 C 47.426549 19.651721 47.225197 19.386458 46.859672 18.199406 C 45.806963 14.780709 42.583708 12.113889 39.015706 11.70988 C 38.475615 11.648724 37.950856 11.619765 37.441125 11.623063 z M 37.470064 22.587769 C 40.017887 22.590569 41.152885 25.764934 39.165051 27.328564 C 38.175691 28.106795 36.841954 27.974277 35.868095 27.000419 C 35.20671 26.339034 35.061426 26.013917 35.061426 25.196912 C 35.061426 23.877456 36.253406 22.586412 37.470064 22.587769 z M 63.804374 74.916874 C 64.015785 74.925738 64.234083 74.959434 64.456014 75.019194 C 66.588883 75.593516 67.19953 77.970421 65.620284 79.549666 C 65.053988 80.115963 64.721103 80.247298 63.849849 80.247298 C 62.94566 80.247298 62.64954 80.119791 61.969861 79.440112 C 61.31249 78.782742 61.162675 78.451622 61.162675 77.652108 C 61.162675 75.991474 62.324496 74.854825 63.804374 74.916874 z M 78.105827 76.685758 C 79.051083 76.711978 80.140856 77.329603 80.518083 78.232434 C 81.307632 80.12209 79.421852 82.190013 77.535319 81.503552 C 77.339559 81.432322 76.886005 81.100532 76.527112 80.76613 C 75.481331 79.791717 75.724532 78.036759 77.050077 76.9922 C 77.288358 76.80443 77.590883 76.707548 77.918758 76.688342 C 77.980235 76.684741 78.04281 76.68401 78.105827 76.685758 z M 52.213867 76.916752 C 52.310256 76.913511 52.407926 76.915023 52.506356 76.920886 C 52.978819 76.949028 53.473273 77.082312 53.977067 77.321379 C 56.258646 78.404059 56.26469 81.707221 53.987402 83.095703 C 53.031575 83.678478 52.306149 83.685417 51.068201 83.123092 C 48.783197 82.085161 48.444751 79.356231 50.389172 77.649007 C 50.917538 77.185096 51.539148 76.939443 52.213867 76.916752 z M 71.010136 82.62183 C 73.559658 82.62183 75.109793 85.127965 73.928304 87.340405 C 73.032717 89.017469 71.431747 89.635595 69.811759 88.929972 C 68.601604 88.402862 67.806714 87.25325 67.806714 86.030408 C 67.806714 84.019308 69.120286 82.62183 71.010136 82.62183 z " /></svg>
