<?xml version="1.0" encoding="UTF-8" standalone="no"?>
<!-- Created with Inkscape (http://www.inkscape.org/) -->

<svg
   width="132.29167mm"
   height="132.29167mm"
   viewBox="0 0 132.29167 132.29167"
   version="1.1"
   id="svg1"
   xml:space="preserve"
   xmlns="http://www.w3.org/2000/svg"
   xmlns:svg="http://www.w3.org/2000/svg"><defs
     id="defs1" /><g
     id="layer1"
     transform="translate(-1565.2085)"><path
       style="fill:#000000;stroke-width:1.25993"
       d="m 1601.1255,128.84003 c -4.3347,-2.43717 -13.6778,-8.53376 -15.3126,-9.99184 -6.4905,-5.78895 -7.983,-17.19233 -3.6229,-27.679366 2.1715,-5.222395 4.7307,-9.411537 10.8673,-17.787318 15.0181,-20.498675 23.8752,-31.620595 34.2652,-43.026874 12.363,-13.572187 18.992,-19.328298 28.2937,-24.5676743 5.2612,-2.9635033 6.4792,-3.4671644 9.9492,-4.1141096 3.8856,-0.72441272 4.0218,-0.71802852 7.87,0.3696102 3.4986,0.9887802 4.0956,1.2777005 5.5997,2.7094336 2.8305,2.6945561 4.066,6.1340711 3.9593,11.0230521 -0.067,3.114465 -2.3671,18.566211 -4.2679,28.684194 -0.7651,4.072124 -2.5557,11.599498 -3.9997,16.81278 l -2.6147,9.439424 c -11.3605,41.012508 -34.8247,50.756168 -39.1424,53.057198 l -4.1858,2.23079 c -6.4796,3.45313 -12.9149,5.23678 -18.4573,5.11581 -2.2497,-0.0492 -7.5912,-1.36989 -9.2013,-2.27519 z m 5.9387,-10.61343 c 23.5591,-27.772798 43.4861,-60.354156 57.2363,-93.58277 3.7792,-9.132837 4.6292,-11.311277 4.3515,-11.152022 -0.2767,0.158621 -36.753,54.318962 -44.2901,65.762296 -8.8531,13.441531 -24.1601,38.742896 -24.7922,40.979866 -0.1406,0.49745 3.0958,2.6673 3.5817,2.40138 0.1774,-0.0972 1.9383,-2.08113 3.9128,-4.40875 z m -10.2278,-0.20194 c 0.2668,-0.94457 7.9939,-14.30815 12.8092,-22.152879 7.6547,-12.470535 14.2701,-22.471898 45.2605,-68.426064 7.3227,-10.85814 13.2721,-19.8198424 13.2212,-19.914833 -0.1846,-0.3437667 -4.6031,0.8615075 -5.8337,1.5912484 -2.4571,1.4570266 -17.576,18.6678076 -24.8507,28.2891416 -16.6739,22.052452 -29.3303,44.541454 -39.5818,70.333446 -2.7188,6.84037 -3.5513,9.67372 -2.9736,10.12108 0.8871,0.68689 1.7789,0.75957 1.9488,0.15882 z m 39.5471,-4.27025 c 11.872,-9.41267 21.171,-22.715794 27.9564,-39.993078 2.7425,-6.982815 9.3011,-31.715263 7.9211,-29.869906 -0.2138,0.285859 -1.6365,3.472404 -3.1616,7.081203 -11.4827,27.16914 -24.2747,49.235341 -37.3891,64.495561 -1.5025,1.74854 -2.7617,3.28879 -2.798,3.42282 -0.1197,0.42386 4.1893,-2.53458 7.4712,-5.1366 z"
       id="path38" /></g></svg>
